<?xml version="1.0" encoding="iso-8859-1"?>
<!-- Generator: Adobe Illustrator 19.0.0, SVG Export Plug-In . SVG Version: 6.00 Build 0)  -->
<svg version="1.1" id="Layer_1" xmlns="http://www.w3.org/2000/svg" xmlns:xlink="http://www.w3.org/1999/xlink" x="0px" y="0px"
	 viewBox="0 0 512.001 512.001" style="enable-background:new 0 0 512.001 512.001;" xml:space="preserve">
<path style="fill:#FF675C;" d="M253.874,394.91c-2.043,0-4.086-0.779-5.645-2.338c-3.118-3.119-3.118-8.173,0-11.291
	l141.443-141.445c3.119-3.117,8.173-3.117,11.291,0c3.118,3.119,3.118,8.173,0,11.291L259.518,392.573
	C257.96,394.131,255.916,394.91,253.874,394.91z"/>
<g>
	<path style="fill:#FBC96C;" d="M302.168,406.225c-2.043,0-4.086-0.779-5.646-2.338c-3.118-3.119-3.118-8.173,0-11.291
		l105.455-105.455c3.119-3.117,8.173-3.117,11.291,0c3.118,3.119,3.118,8.173,0,11.291L307.813,403.888
		C306.254,405.445,304.21,406.225,302.168,406.225z"/>
	<path style="fill:#FBC96C;" d="M241.622,347.553c-2.043,0-4.086-0.779-5.645-2.338c-3.118-3.119-3.118-8.173,0-11.291
		l104.976-104.976c3.119-3.117,8.173-3.117,11.291,0c3.118,3.119,3.118,8.173,0,11.291L247.266,345.215
		C245.708,346.772,243.665,347.553,241.622,347.553z"/>
</g>
<path style="fill:#FF675C;" d="M116.559,257.596c-2.043,0-4.086-0.779-5.645-2.338c-3.118-3.119-3.118-8.173,0-11.291
	l141.455-141.455c3.118-3.116,8.172-3.117,11.291,0c3.118,3.119,3.118,8.173,0,11.291L122.205,255.258
	C120.645,256.816,118.602,257.596,116.559,257.596z"/>
<g>
	<path style="fill:#FBC96C;" d="M163.289,270.475c-2.043,0-4.086-0.779-5.645-2.338c-3.118-3.119-3.118-8.173,0-11.291
		l106.243-106.243c3.119-3.118,8.173-3.116,11.291,0c3.118,3.119,3.118,8.173,0,11.291L168.933,268.138
		C167.375,269.695,165.331,270.475,163.289,270.475z"/>
	<path style="fill:#FBC96C;" d="M102.253,212.292c-2.043,0-4.086-0.779-5.645-2.338c-3.118-3.119-3.118-8.173,0-11.291
		l107.829-107.83c3.118-3.117,8.173-3.117,11.29,0c3.118,3.119,3.118,8.173,0,11.291l-107.829,107.83
		C106.339,211.513,104.295,212.292,102.253,212.292z"/>
</g>
<path style="fill:#5CC4E0;" d="M493.141,352.832c-1.501-8.686-9.761-14.509-18.458-13.008c-16.435,2.842-33.796,8.345-51.339,14.881
	c6.365-17.127,11.762-34.063,14.658-50.136c6.333-35.116-0.064-61.664-19.565-81.154c-19.49-19.49-46.038-25.888-81.143-19.554
	c-16.935,3.055-34.84,8.878-52.903,15.701c6.823-18.064,12.646-35.968,15.701-52.903c6.334-35.116-0.064-61.653-19.554-81.143
	c-19.49-19.501-46.038-25.898-81.154-19.565c-17.404,3.14-145.809,53.106-167.886,57.48c-8.654,1.703-14.274,10.102-12.571,18.756
	c1.714,8.654,10.112,14.274,18.766,12.561c16.02-3.161,32.881-8.707,49.88-15.126c-6.823,18.064-12.646,35.968-15.701,52.903
	c-6.334,35.106,0.064,61.653,19.554,81.143s46.038,25.888,81.154,19.565c17.404-3.14,35.829-9.208,54.404-16.276
	c-7.068,18.575-13.125,37-16.265,54.415c-5.801,32.147-0.926,57.108,14.902,76.055c0.564,0.862,1.235,1.671,1.991,2.427l2.661,2.661
	c0.756,0.766,1.575,1.426,2.427,2.001c13.817,11.539,30.837,17.255,51.509,17.255c7.675,0,15.85-0.788,24.546-2.363
	c18.287-3.289,37.692-9.814,57.214-17.34c15.848-7.061,31.721-13.158,41.109-16.637c23.48-8.701,50.998-20.32,73.053-24.142
	C488.82,369.789,494.642,361.529,493.141,352.832z M163.289,262.492c-5.131,0.777-10.07,1.213-14.775,1.213
	c-13.742,0-25.526-3.63-34.51-12.614c-11.56-11.56-14.242-27.729-11.752-46.783c3.087-23.684,14.189-51.828,26.207-81.111
	c29.4-12.082,57.725-23.375,81.622-26.718c19.522-2.736,36.096-0.17,47.879,11.613c0.021,0.021,0.032,0.043,0.053,0.064
	c11.784,11.826,14.306,28.474,11.517,48.092c-3.332,23.397-14.242,51.03-26.026,79.738
	C214.67,247.835,186.887,258.916,163.289,262.492z M407.623,292.786c-2.991,22.896-13.465,49.955-25.015,78.173
	c-28.772,11.847-56.629,23.163-80.441,27.282c-20.555,3.566-38.097,1.767-50.615-9.665c-0.255-0.277-0.5-0.553-0.734-0.83
	c-10.485-12.135-12.316-28.772-9.197-48.177c3.758-23.365,14.679-50.743,26.345-79.121c28.261-11.603,55.469-22.343,78.631-25.856
	c19.831-3.012,36.702-0.713,48.72,10.889c0.181,0.17,0.362,0.341,0.543,0.511C407.421,257.564,410.114,273.733,407.623,292.786z"/>
<g>
	<path style="fill:#439EE8;" d="M397.192,399.487c3.289-1.352,6.589-2.704,9.889-4.056c-13.54,32.902-17.95,60.756-28.74,93.512
		c-2.665,8.091-7.515,15.073-15.924,15.073c-0.298,0-0.607-0.011-0.915-0.021c-8.803-0.5-16.984-8.239-15.041-16.84
		c6.723-29.75,18.909-72.399,19.511-75.087C376.403,408.045,386.856,403.745,397.192,399.487z"/>
	<path style="fill:#439EE8;" d="M418.438,223.416c19.501,19.49,25.898,46.038,19.565,81.154
		c-2.895,16.073-8.292,33.009-14.658,50.136c-12.763,4.747-25.632,10.038-38.31,15.254c-0.809,0.341-1.618,0.671-2.427,1.001
		c11.549-28.219,22.024-55.277,25.015-78.173c2.491-19.054-0.202-35.223-11.762-46.793c-0.181-0.17-0.362-0.341-0.543-0.511
		c-12.018-11.603-28.889-13.902-48.72-10.889c-23.163,3.513-50.37,14.253-78.631,25.856c-2.31,0.947-4.63,1.905-6.951,2.863
		c-11.262,4.63-22.673,9.335-34.031,13.646c-18.575,7.068-37,13.135-54.404,16.276c-35.116,6.323-61.664-0.075-81.154-19.565
		s-25.888-46.038-19.554-81.143c3.055-16.935,8.878-34.84,15.701-52.903c11.847-4.471,23.769-9.378,35.531-14.221
		c1.788-0.734,3.577-1.469,5.354-2.203c-12.018,29.283-23.12,57.427-26.207,81.111c-2.491,19.054,0.192,35.223,11.752,46.783
		c8.984,8.984,20.767,12.614,34.51,12.614c4.705,0,9.644-0.436,14.775-1.213c23.599-3.577,51.381-14.658,80.217-26.505
		c1.778-0.734,3.566-1.469,5.354-2.203c11.762-4.843,23.684-9.75,35.531-14.221c18.064-6.823,35.968-12.646,52.903-15.701
		C372.4,197.528,398.948,203.926,418.438,223.416z"/>
</g>
<path style="fill:#5CC4E0;" d="M493.141,352.832c1.501,8.697-4.322,16.957-13.008,18.458c-22.055,3.821-47.688,13.763-73.053,24.142
	c-3.3,1.352-6.6,2.704-9.889,4.056c-10.336,4.258-20.789,8.558-31.22,12.582c-19.522,7.526-38.927,14.051-57.214,17.34
	c-8.697,1.575-16.872,2.363-24.546,2.363c-20.672,0-37.692-5.716-51.509-17.255c-0.852-0.575-1.671-1.235-2.427-2.001l-2.661-2.661
	c-0.756-0.756-1.426-1.565-1.991-2.427c-15.828-18.947-20.704-43.909-14.902-76.055c3.14-17.414,9.197-35.84,16.265-54.415
	c11.358-4.311,22.769-9.016,34.031-13.646c2.32-0.958,4.641-1.916,6.951-2.863c-11.666,28.378-22.588,55.756-26.345,79.121
	c-3.119,19.405-1.288,36.042,9.197,48.177c0.234,0.277,0.479,0.553,0.734,0.83c12.518,11.432,30.06,13.231,50.615,9.665
	c23.812-4.119,51.669-15.435,80.441-27.282c0.809-0.33,1.618-0.66,2.427-1.001c12.678-5.216,25.547-10.506,38.31-15.254
	c17.542-6.536,34.903-12.039,51.339-14.881C483.38,338.324,491.641,344.146,493.141,352.832z"/>
<path style="fill:#439EE8;" d="M148.439,8.215c8.697,1.512,15.16,9.91,13.008,18.458c-5.057,20.085-15.415,56.032-16.467,55.543
	c0.443-0.12-38.661,15.562-40.981,16.52c-0.006-1.409,17.054-53.197,25.983-77.514C133.025,12.937,139.753,6.704,148.439,8.215z"/>
<path style="fill:#5CC4E0;" d="M280.538,85.516c19.49,19.49,25.888,46.027,19.554,81.143c-3.055,16.935-8.878,34.84-15.701,52.903
	c-11.847,4.471-23.769,9.378-35.531,14.221c-1.788,0.734-3.577,1.469-5.354,2.203c11.784-28.708,22.694-56.342,26.026-79.738
	c2.789-19.618,0.266-36.266-11.517-48.092c-0.021-0.021-0.032-0.043-0.053-0.064c-11.783-11.784-28.357-14.349-47.879-11.613
	c-23.897,3.342-52.222,14.636-81.622,26.718c-1.778,0.734-3.566,1.469-5.354,2.203c-11.762,4.843-23.684,9.75-35.531,14.221
	c-16.999,6.419-33.86,11.964-49.88,15.126c-8.654,1.714-17.053-3.907-18.766-12.561c-1.703-8.654,3.917-17.053,12.571-18.756
	c22.077-4.375,47.496-14.445,72.5-24.695c2.321-0.958,4.641-1.905,6.951-2.863c11.262-4.641,22.673-9.335,34.031-13.657
	c18.575-7.068,37-13.125,54.404-16.265C234.5,59.618,261.048,66.015,280.538,85.516z"/>
<path d="M164.485,270.385c0.001,0,0.002,0,0.002,0c23.89-3.62,51.294-14.375,82.052-27.012c0.002-0.001,0.004-0.002,0.006-0.003
	c0.003-0.001,0.006-0.002,0.01-0.003l5.345-2.199c11.566-4.763,23.528-9.688,35.305-14.133c0.002-0.001,0.004-0.001,0.006-0.002
	c12.695-4.795,23.171-8.294,32.968-11.012c38.223-10.605,66.539-8.099,86.56,7.658c3.465,2.727,8.486,2.128,11.211-1.336
	c2.727-3.466,2.129-8.485-1.336-11.211c-24.297-19.121-57.238-22.555-100.704-10.497c-5.786,1.605-11.793,3.473-18.27,5.677
	c4.927-14.503,8.264-26.908,10.308-38.234c6.832-37.875-0.288-66.728-21.764-88.204c-21.474-21.489-50.333-28.61-88.219-21.78
	c-12.021,2.168-25.299,5.809-41,11.258c3.937-13.357,9.326-31.16,12.119-40.36c1.752-5.771,0.904-11.897-2.393-17.248
	c-3.653-5.932-9.965-10.191-16.885-11.394c-11.958-2.084-22.967,5.276-27.387,18.309c-9.402,27.72-15.189,44.64-19.018,55.835
	c-3.594,10.507-5.232,15.296-6.075,17.992c-15.619,5.017-26.88,8.937-47.633,16.165c-6.009,2.093-12.834,4.469-20.814,7.238
	c-12.823,4.449-20.137,15.898-17.786,27.849c2.257,11.392,12.29,19.302,23.485,19.301c1.536,0,3.096-0.15,4.659-0.459
	c10.377-2.048,21.677-5.164,34.755-9.598c-11.918,33.876-19.773,73.809-1.503,108.946c1.422,2.735,4.207,4.303,7.09,4.303
	c1.24,0,2.499-0.291,3.677-0.903c3.912-2.034,5.434-6.854,3.4-10.766c-17.727-34.093-5.967-75.61,7.046-108.748
	c6.791-2.604,13.557-5.307,20.245-8.033c-9.515,24.024-17.054,45.857-19.614,65.496c0,0.003,0,0.005-0.001,0.009
	c-3.066,23.465,1.522,40.948,14.023,53.449c9.921,9.922,23.431,14.953,40.154,14.953
	C153.47,271.689,158.693,271.263,164.485,270.385z M137.542,23.788c1.384-4.08,4.714-8.549,9.531-7.707
	c2.445,0.424,4.754,1.971,6.025,4.035c0.887,1.441,1.126,2.866,0.71,4.237c-4.579,15.082-12.153,40.16-15.455,51.857
	c-7.315,2.831-14.649,5.796-21.62,8.653c0.529-1.549,1.117-3.268,1.779-5.203C122.343,68.457,128.134,51.527,137.542,23.788z
	 M36.143,146.916c-4.32,0.861-8.529-1.961-9.382-6.271c-0.968-4.92,3.357-8.285,7.355-9.672c7.988-2.772,14.818-5.151,20.831-7.245
	c22.451-7.818,33.722-11.742,51.471-17.386c0.037-0.012,0.072-0.029,0.11-0.042c0.133-0.045,0.264-0.093,0.395-0.144
	c0.04-0.016,0.082-0.027,0.122-0.044l2.835-1.167c1.377-0.565,2.755-1.132,4.113-1.695c10.457-4.311,22.309-9.195,33.825-13.576
	c0.001,0,0.002-0.001,0.003-0.001c21.512-8.187,38.347-13.23,52.981-15.87c32.355-5.834,56.591-0.16,74.091,17.354
	c17.504,17.503,23.176,41.735,17.343,74.082c-2.442,13.539-6.932,28.919-14.065,48.161c-6.741,2.586-13.479,5.279-20.154,7.999
	c9.271-23.402,16.664-44.711,19.415-64.007c0.001-0.009,0.003-0.016,0.004-0.023c3.421-24.07-1.038-41.962-13.623-54.696
	c-0.07-0.076-0.137-0.16-0.208-0.23c-12.706-12.706-30.576-17.243-54.631-13.874c-0.002,0-0.004,0.001-0.007,0.001
	c-24.204,3.388-52.155,14.34-83.543,27.239c-0.004,0.002-0.007,0.004-0.012,0.005c-0.004,0.002-0.009,0.003-0.013,0.005
	c-0.012,0.005-0.023,0.01-0.035,0.015c-1.757,0.725-3.523,1.451-5.3,2.18c-11.537,4.751-23.466,9.664-35.303,14.132
	c-0.003,0.001-0.006,0.002-0.01,0.003C65.183,139.543,49.739,144.233,36.143,146.916z M110.168,205.346
	c0-0.001,0.001-0.003,0.001-0.004c2.822-21.651,12.652-47.269,24.413-76.024c29.107-11.925,55.006-21.91,76.604-24.932
	c0.001,0,0.002,0,0.003,0c18.888-2.649,31.91,0.269,40.947,9.175c0.032,0.035,0.064,0.068,0.096,0.103
	c0.022,0.023,0.047,0.043,0.069,0.065c0.02,0.021,0.037,0.044,0.057,0.064c9.043,9.074,11.988,22.208,9.268,41.333
	c0,0.003,0,0.006-0.001,0.011c-3.055,21.432-12.716,46.557-24.243,74.732c-28.526,11.682-53.927,21.493-75.291,24.73h-0.001
	c-4.921,0.745-9.49,1.124-13.578,1.124c-12.508,0-21.95-3.362-28.865-10.276C110.766,236.564,107.754,223.823,110.168,205.346z"/>
<path d="M501.009,351.472c-1.166-6.744-5.12-12.734-10.847-16.433c-5.322-3.437-11.527-4.481-17.475-2.945
	c-13.21,3.415-25.563,6.96-35.918,10.084c9.831-27.137,16.592-57.394,8.33-87.144c-1.179-4.248-5.581-6.737-9.828-5.556
	c-4.248,1.179-6.736,5.58-5.556,9.828c8.268,29.776-1.36,61.58-12.459,89.178c-6.757,2.557-13.5,5.224-20.195,7.937
	c8.716-22.208,15.985-43.503,18.479-62.599c3.067-23.46-1.523-40.951-14.032-53.47c-0.063-0.063-0.126-0.123-0.189-0.184
	l-0.525-0.494c-0.029-0.027-0.06-0.049-0.088-0.076c-12.915-12.366-31.013-16.59-55.306-12.897c-0.002,0-0.003,0.001-0.005,0.001
	c-23.828,3.615-50.536,14.078-80.46,26.362c-0.002,0.001-0.004,0.002-0.007,0.003c-2.312,0.949-4.637,1.909-6.947,2.862
	l-1.206,0.496c-10.675,4.389-21.714,8.927-32.536,13.037l-3.686,1.275c-32.942,11.414-67.003,23.216-98.968,12.359
	c-4.176-1.418-8.708,0.818-10.126,4.991c-1.418,4.176,0.817,8.709,4.992,10.127c10.674,3.624,21.442,5.112,32.178,5.112
	c22.276,0,44.394-6.405,65.147-13.388c-5.262,15.276-8.788,28.245-10.912,40.016c-6.227,34.506-0.875,61.422,16.362,82.266
	c0.789,1.144,1.708,2.245,2.743,3.28l2.623,2.622c0.984,0.997,2.086,1.927,3.285,2.765c15.137,12.52,34.088,18.869,56.334,18.869
	c8.105,0,16.842-0.838,25.959-2.489c12.816-2.306,26.698-6.169,43.716-12.204c-4.71,15.899-11.381,38.79-15.285,60.692
	c-1.041,5.84,0.558,11.804,4.502,16.794c4.35,5.505,11.06,9.026,17.946,9.418c0.062,0.003,0.122,0.006,0.185,0.009
	c0.399,0.014,0.798,0.025,1.183,0.025c10.858,0,19.441-7.536,23.545-20.676c7.315-23.416,11.649-37.702,15.842-51.517
	c3.507-11.56,6.84-22.538,11.677-38.077c5.275-1.729,11.237-3.651,17.489-5.667c16.94-5.462,36.138-11.65,51.846-17.254
	C495.725,374.205,503.037,363.22,501.009,351.472z M389.773,251.226c0.01,0.01,0.02,0.017,0.03,0.027
	c0.014,0.013,0.024,0.028,0.038,0.04l0.453,0.426c8.829,8.896,11.82,21.622,9.413,40.033c-2.79,21.353-12.474,46.715-23.228,73.097
	c-25.085,10.321-53.009,21.605-75.672,25.526c-0.002,0-0.003,0.001-0.005,0.001c-20.131,3.494-34.002,1.124-43.602-7.458
	c-0.104-0.116-0.213-0.243-0.34-0.392c-7.975-9.23-10.381-22.866-7.355-41.69c3.413-21.219,13.087-46.219,24.581-74.266
	c26.778-10.954,52.477-20.864,73.709-24.085c0.001,0,0.002,0,0.002,0C367.208,239.536,380.542,242.314,389.773,251.226z
	 M370.719,486.563c-1.35,4.321-3.884,9.469-8.304,9.469c-0.173,0-0.353-0.006-0.534-0.013c-2.339-0.156-4.728-1.443-6.252-3.371
	c-0.622-0.787-1.619-2.364-1.309-4.093c3.938-22.098,10.931-45.666,15.557-61.263c1.017-3.426,1.939-6.54,2.711-9.233
	c7.419-2.905,14.863-5.938,21.845-8.806c-2.959,9.602-5.39,17.612-7.91,25.915C382.34,448.954,378.015,463.209,370.719,486.563z
	 M477.451,363.77c-15.478,5.522-34.553,11.671-51.382,17.097c-7.871,2.538-15.304,4.934-21.501,6.987
	c-0.077,0.026-0.147,0.059-0.221,0.086c-0.096,0.035-0.193,0.064-0.287,0.102c-0.001,0.001-0.003,0.001-0.005,0.002
	c-3.302,1.353-6.604,2.706-9.904,4.061c-9.606,3.957-20.493,8.442-31.042,12.512c-0.003,0.001-0.007,0.002-0.011,0.003
	c-23.217,8.95-40.412,14.172-55.766,16.933c-8.189,1.484-15.969,2.235-23.123,2.235c-18.809,0-33.984-5.037-46.392-15.399
	c-0.209-0.173-0.425-0.336-0.65-0.489c-0.463-0.313-0.87-0.645-1.249-1.03l-2.661-2.661c-0.385-0.384-0.707-0.774-0.955-1.153
	c-0.17-0.259-0.354-0.51-0.555-0.747c-14.232-17.036-18.541-39.775-13.173-69.521c2.503-13.876,7.168-29.736,14.621-49.675
	c6.758-2.607,13.535-5.327,20.232-8.063c-9.221,23.186-16.638,44.272-19.69,63.25c-3.82,23.766-0.21,41.647,10.979,54.595
	c0.309,0.366,0.631,0.73,0.968,1.094c0.154,0.166,0.315,0.328,0.483,0.48c9.805,8.954,22.511,13.389,38.546,13.389
	c5.819,0,12.082-0.585,18.798-1.75c0.005-0.001,0.011-0.001,0.015-0.002c25.328-4.382,55.501-16.806,82.119-27.766
	c0.003-0.001,0.006-0.003,0.011-0.005c0.825-0.336,1.651-0.674,2.414-0.995c12.395-5.099,25.209-10.37,37.887-15.09
	c16.737-5.35,34.742-10.568,50.722-14.698c2.025-0.528,3.736,0.2,4.818,0.899c1.962,1.266,3.372,3.412,3.775,5.736
	C486.326,360.278,478.943,363.238,477.451,363.77z"/>
<g>
</g>
<g>
</g>
<g>
</g>
<g>
</g>
<g>
</g>
<g>
</g>
<g>
</g>
<g>
</g>
<g>
</g>
<g>
</g>
<g>
</g>
<g>
</g>
<g>
</g>
<g>
</g>
<g>
</g>
</svg>
