<?xml version="1.0" encoding="iso-8859-1"?>
<!-- Generator: Adobe Illustrator 19.0.0, SVG Export Plug-In . SVG Version: 6.00 Build 0)  -->
<svg version="1.1" id="Layer_1" xmlns="http://www.w3.org/2000/svg" xmlns:xlink="http://www.w3.org/1999/xlink" x="0px" y="0px"
	 viewBox="0 0 512 512" style="enable-background:new 0 0 512 512;" xml:space="preserve">
<path style="fill:#6A82A1;" d="M256,512C114.842,512,0,397.158,0,256S114.842,0,256,0s256,114.842,256,256S397.158,512,256,512z"/>
<path style="fill:#2C3E50;" d="M256,0v512c141.158,0,256-114.842,256-256S397.158,0,256,0z"/>
<path style="fill:#C7E9F4;" d="M256,451.783c-107.955,0-195.783-87.829-195.783-195.783S148.045,60.217,256,60.217
	S451.783,148.045,451.783,256S363.955,451.783,256,451.783z"/>
<path style="fill:#80D0E1;" d="M256,60.217v391.565c107.955,0,195.783-87.829,195.783-195.783S363.955,60.217,256,60.217z"/>
<circle style="fill:#65C6BB;" cx="176.277" cy="176.277" r="22.143"/>
<g>
	<path style="fill:#20B8AE;" d="M143.264,298.985c-11.674,0-21.138-9.464-21.138-21.138v-43.704
		c0-11.674,9.464-21.138,21.138-21.138s21.138,9.464,21.138,21.138v43.704C164.402,289.521,154.938,298.985,143.264,298.985z"/>
	<circle style="fill:#20B8AE;" cx="335.714" cy="335.714" r="22.143"/>
</g>
<path style="fill:#1DA49C;" d="M336.222,206.677l-30.902-30.902c-8.255-8.255-8.255-21.638,0-29.893
	c8.254-8.255,21.638-8.255,29.893,0l30.902,30.902c8.255,8.255,8.255,21.638,0,29.893
	C357.861,214.932,344.475,214.933,336.222,206.677z"/>
<path style="fill:#80D0E1;" d="M345.167,234.862h-19.021c-9.095-30.125-37.093-52.128-70.144-52.128
	c-40.399,0-73.266,32.867-73.266,73.266c0,33.051,22.003,61.049,52.128,70.144v19.021c0,11.674,9.464,21.138,21.138,21.138
	c11.674,0,21.138-9.464,21.138-21.138v-19.021c23.427-7.074,41.934-25.58,49.006-49.006h19.021c11.674,0,21.138-9.464,21.138-21.138
	C366.305,244.326,356.841,234.862,345.167,234.862z M256,286.99c-17.088,0-30.99-13.902-30.99-30.99
	c0-17.088,13.902-30.99,30.99-30.99c17.088,0,30.99,13.902,30.99,30.99C286.99,273.088,273.088,286.99,256,286.99z"/>
<path style="fill:#51B3DA;" d="M345.167,234.862h-19.021c-9.095-30.125-37.093-52.128-70.144-52.128v42.276
	c17.088,0,30.99,13.902,30.99,30.99c0,17.088-13.902,30.99-30.99,30.99v79.314c11.674,0,21.138-9.464,21.138-21.138v-19.021
	c23.427-7.074,41.934-25.58,49.006-49.006h19.021c11.674,0,21.138-9.464,21.138-21.138
	C366.305,244.326,356.841,234.862,345.167,234.862z"/>
<g>
</g>
<g>
</g>
<g>
</g>
<g>
</g>
<g>
</g>
<g>
</g>
<g>
</g>
<g>
</g>
<g>
</g>
<g>
</g>
<g>
</g>
<g>
</g>
<g>
</g>
<g>
</g>
<g>
</g>
</svg>
