<?xml version="1.0" encoding="iso-8859-1"?>
<!-- Generator: Adobe Illustrator 19.0.0, SVG Export Plug-In . SVG Version: 6.00 Build 0)  -->
<svg version="1.1" id="Layer_1" xmlns="http://www.w3.org/2000/svg" xmlns:xlink="http://www.w3.org/1999/xlink" x="0px" y="0px"
	 viewBox="0 0 511.981 511.981" style="enable-background:new 0 0 511.981 511.981;" xml:space="preserve">
<path style="fill:#5D9CEC;" d="M21.335,394.638c-5.882,0-10.671-4.781-10.671-10.656V63.988c0-5.875,4.789-10.656,10.671-10.656
	h469.302c5.891,0,10.688,4.781,10.688,10.656v319.995c0,5.875-4.797,10.656-10.688,10.656H21.335V394.638z"/>
<path style="fill:#E6E9ED;" d="M490.636,42.66H21.335C9.554,42.66,0,52.205,0,63.987v319.995c0,11.781,9.554,21.342,21.335,21.342
	h469.302c11.781,0,21.344-9.561,21.344-21.342V63.988C511.98,52.206,502.418,42.66,490.636,42.66z M490.636,383.982H21.335V63.988
	h469.302v319.994H490.636z"/>
<polygon style="fill:#CCD1D9;" points="341.331,469.322 170.657,469.322 191.93,384.076 320.018,384.044 "/>
<rect x="15.945" y="341.331" style="fill:#E6E9ED;" width="480.1" height="61.03"/>
<path style="fill:#434A54;" d="M266.653,373.326c0,5.875-4.773,10.656-10.663,10.656c-5.891,0-10.664-4.781-10.664-10.656
	c0-5.904,4.773-10.686,10.664-10.686C261.88,362.639,266.653,367.422,266.653,373.326z"/>
<path style="fill:#E6E9ED;" d="M341.331,447.98H170.657c-5.891,0-10.664,4.781-10.664,10.654c0,5.906,4.773,10.688,10.664,10.688
	H341.33c5.875,0,10.656-4.781,10.656-10.688C351.987,452.762,347.206,447.98,341.331,447.98z"/>
<g>
	<path style="fill:#434A54;" d="M447.982,149.328H277.333c-5.898,0-10.672-4.781-10.672-10.672S271.434,128,277.333,128h170.649
		c5.906,0,10.672,4.765,10.672,10.656S453.888,149.328,447.982,149.328z"/>
	<path style="fill:#434A54;" d="M447.982,191.998H277.333c-5.898,0-10.672-4.781-10.672-10.671s4.773-10.671,10.672-10.671h170.649
		c5.906,0,10.672,4.781,10.672,10.671S453.888,191.998,447.982,191.998z"/>
	<path style="fill:#434A54;" d="M447.982,234.653H277.333c-5.898,0-10.672-4.766-10.672-10.656s4.773-10.671,10.672-10.671h170.649
		c5.906,0,10.672,4.781,10.672,10.671S453.888,234.653,447.982,234.653z"/>
	<path style="fill:#434A54;" d="M447.982,277.331H277.333c-5.898,0-10.672-4.781-10.672-10.68c0-5.891,4.773-10.656,10.672-10.656
		h170.649c5.906,0,10.672,4.765,10.672,10.656C458.654,272.549,453.888,277.331,447.982,277.331z"/>
</g>
<g>
	<path style="fill:#CCD1D9;" d="M207.546,128H70.115c-5.891,0-10.671-4.781-10.671-10.671s4.781-10.672,10.671-10.672h137.432
		c5.891,0,10.664,4.781,10.664,10.672S213.437,128,207.546,128z"/>
	<path style="fill:#CCD1D9;" d="M187.696,170.655H89.66c-5.89,0-10.664-4.766-10.664-10.656c0-5.891,4.773-10.671,10.664-10.671
		h98.036c5.89,0,10.663,4.781,10.663,10.671C198.359,165.889,193.586,170.655,187.696,170.655z"/>
	<path style="fill:#CCD1D9;" d="M187.688,255.995H89.66c-5.89,0-10.664-4.781-10.664-10.672c0-5.89,4.773-10.671,10.664-10.671
		h98.028c5.89,0,10.663,4.781,10.663,10.671C198.351,251.214,193.578,255.995,187.688,255.995z"/>
	<path style="fill:#CCD1D9;" d="M207.546,298.641H69.81c-5.891,0-10.664-4.75-10.664-10.654c0-5.875,4.773-10.656,10.664-10.656
		h137.736c5.891,0,10.664,4.781,10.664,10.656C218.21,293.891,213.437,298.641,207.546,298.641z"/>
</g>
<path style="fill:#E6E9ED;" d="M64.036,319.986c-0.648,0-1.297-0.062-1.96-0.188c-5.789-1.062-9.617-6.625-8.539-12.438
	c0.688-3.688,17.531-90.708,81.395-114.691c14.96-5.609,36.397-19.921,53.537-56.201c10.578-22.39,14.335-42.217,14.374-42.42
	c1.07-5.797,6.641-9.609,12.43-8.547c5.796,1.078,9.617,6.656,8.546,12.437c-0.688,3.703-17.531,90.731-81.395,114.699
	c-14.96,5.625-36.397,19.937-53.537,56.217c-10.585,22.383-14.335,42.226-14.374,42.413
	C73.56,316.392,69.075,319.986,64.036,319.986z"/>
<path style="fill:#F5F7FA;" d="M213.32,319.986c-5.047,0-9.523-3.594-10.477-8.719c-0.148-0.781-15.381-78.896-67.911-98.63
	C71.068,188.67,54.224,101.642,53.537,97.938c-1.078-5.781,2.75-11.359,8.539-12.437c5.789-1.062,11.351,2.75,12.437,8.531l0,0
	c0.148,0.797,15.382,78.919,67.911,98.637c63.864,23.983,80.708,111.004,81.395,114.691c1.07,5.812-2.75,11.375-8.546,12.438
	C214.616,319.924,213.96,319.986,213.32,319.986z"/>
<g>
</g>
<g>
</g>
<g>
</g>
<g>
</g>
<g>
</g>
<g>
</g>
<g>
</g>
<g>
</g>
<g>
</g>
<g>
</g>
<g>
</g>
<g>
</g>
<g>
</g>
<g>
</g>
<g>
</g>
</svg>
